<?xml version="1.0" standalone="no"?><!DOCTYPE svg PUBLIC "-//W3C//DTD SVG 1.1//EN" "http://www.w3.org/Graphics/SVG/1.1/DTD/svg11.dtd"><svg t="1563067710555" class="icon" viewBox="0 0 1024 1024" version="1.1" xmlns="http://www.w3.org/2000/svg" p-id="1686" xmlns:xlink="http://www.w3.org/1999/xlink" width="200" height="200"><defs><style type="text/css"></style></defs><path d="M998.4 1024H25.6a25.6 25.6 0 0 1 0-51.2h972.8a25.6 25.6 0 0 1 0 51.2zM921.6 179.2H102.4a25.6 25.6 0 0 1 0-51.2h819.2a25.6 25.6 0 0 1 0 51.2z" fill="#ffffff" p-id="1687"></path><path d="M512 1024a25.6 25.6 0 0 1-25.6-25.6V25.6a25.6 25.6 0 0 1 51.2 0v972.8a25.6 25.6 0 0 1-25.6 25.6zM384.256 652.8H51.2a25.5872 25.5872 0 0 1-24.0896-34.304l166.4-460.8a25.6256 25.6256 0 0 1 48.1664 0.0128L406.912 615.2576A25.6 25.6 0 0 1 384.256 652.8zM87.6672 601.6h259.8784L217.6 241.7792 87.6672 601.6z" fill="#ffffff" p-id="1688"></path><path d="M217.6 819.2C111.7312 819.2 25.6 733.0688 25.6 627.2a25.6 25.6 0 0 1 25.6-25.6h332.8a25.6 25.6 0 0 1 25.6 25.6c0 105.8688-86.1312 192-192 192zM79.1296 652.8c12.0704 65.4592 69.568 115.2 138.4704 115.2s126.4-49.7408 138.4704-115.2H79.1296zM973.056 652.8a0.8576 0.8576 0 0 0-0.256 0H640a25.5872 25.5872 0 0 1-24.0768-34.304l166.4-460.8a25.6 25.6 0 0 1 48.1536 0.0128l165.2224 457.5616A25.5744 25.5744 0 0 1 973.056 652.8z m-296.5888-51.2h259.8784L806.4 241.7792 676.4672 601.6z" fill="#ffffff" p-id="1689"></path><path d="M806.4 819.2c-105.8688 0-192-86.1312-192-192a25.6 25.6 0 0 1 25.6-25.6h332.8a25.6 25.6 0 0 1 25.6 25.6c0 105.8688-86.1312 192-192 192zM667.9424 652.8c12.0576 65.4592 69.568 115.2 138.4576 115.2s126.4-49.7408 138.4576-115.2H667.9424z" fill="#ffffff" p-id="1690"></path></svg>