<?xml version="1.0" standalone="no"?><!DOCTYPE svg PUBLIC "-//W3C//DTD SVG 1.1//EN" "http://www.w3.org/Graphics/SVG/1.1/DTD/svg11.dtd"><svg t="1563067979148" class="icon" viewBox="0 0 1024 1024" version="1.1" xmlns="http://www.w3.org/2000/svg" p-id="6430" xmlns:xlink="http://www.w3.org/1999/xlink" width="200" height="200"><defs><style type="text/css"></style></defs><path d="M327.68 634.88l-17.066667 204.8L146.773333 993.28l34.133334-395.946667 61.44-58.026666 85.333333 95.573333zM764.586667 1024H174.08l163.84-153.6H624.64l139.946667 153.6zM194.56 426.666667L228.693333 30.72l139.946667 153.6-17.066667 204.8-105.813333 95.573333-51.2-58.026666zM853.333333 0l-163.84 153.6H402.773333L262.826667 0h590.506666z m-27.306666 597.333333l-34.133334 395.946667-139.946666-153.6 17.066666-204.8 102.4-95.573333 54.613334 58.026666zM692.906667 389.12l17.066666-208.213333L877.226667 30.72l-34.133334 395.946667-61.44 58.026666-88.746666-95.573333z" p-id="6431" fill="#ffffff"></path></svg>